<mxfile host="app.diagrams.net" agent="Mozilla/5.0 (Windows NT 10.0; Win64; x64) AppleWebKit/537.36 (KHTML, like Gecko) Chrome/140.0.0.0 Safari/537.36" version="28.2.5">
  <diagram id="07fea595-8f29-1299-0266-81d95cde20df" name="Page-1">
    <mxGraphModel dx="1426" dy="789" grid="1" gridSize="10" guides="1" tooltips="1" connect="1" arrows="1" fold="1" page="1" pageScale="1" pageWidth="1169" pageHeight="827" background="#ffffff" math="0" shadow="0">
      <root>
        <mxCell id="0" />
        <mxCell id="1" parent="0" />
        <mxCell id="wR1I_Ti6qpzqJlPBpOAb-309" value="" style="rounded=0;html=1;absoluteArcSize=1;arcSize=14;strokeWidth=2;whiteSpace=wrap;" vertex="1" parent="1">
          <mxGeometry x="360" y="730" width="440" height="990" as="geometry" />
        </mxCell>
        <mxCell id="wR1I_Ti6qpzqJlPBpOAb-271" value="" style="rounded=0;whiteSpace=wrap;html=1;absoluteArcSize=1;arcSize=14;strokeWidth=2;" vertex="1" parent="1">
          <mxGeometry x="110" y="1780" width="410" height="390" as="geometry" />
        </mxCell>
        <mxCell id="wR1I_Ti6qpzqJlPBpOAb-269" value="" style="rounded=0;whiteSpace=wrap;html=1;absoluteArcSize=1;arcSize=14;strokeWidth=2;" vertex="1" parent="1">
          <mxGeometry x="1286.68" y="700" width="350" height="1380" as="geometry" />
        </mxCell>
        <mxCell id="wR1I_Ti6qpzqJlPBpOAb-233" style="edgeStyle=orthogonalEdgeStyle;rounded=0;orthogonalLoop=1;jettySize=auto;html=1;exitX=0.5;exitY=1;exitDx=0;exitDy=0;exitPerimeter=0;entryX=0.5;entryY=0;entryDx=0;entryDy=0;" edge="1" parent="1" source="wR1I_Ti6qpzqJlPBpOAb-218" target="wR1I_Ti6qpzqJlPBpOAb-219">
          <mxGeometry relative="1" as="geometry" />
        </mxCell>
        <mxCell id="wR1I_Ti6qpzqJlPBpOAb-218" value="Mulai" style="strokeWidth=2;html=1;shape=mxgraph.flowchart.start_1;whiteSpace=wrap;" vertex="1" parent="1">
          <mxGeometry x="546.25" y="770" width="83.33" height="50" as="geometry" />
        </mxCell>
        <mxCell id="wR1I_Ti6qpzqJlPBpOAb-234" style="edgeStyle=orthogonalEdgeStyle;rounded=0;orthogonalLoop=1;jettySize=auto;html=1;exitX=0.5;exitY=1;exitDx=0;exitDy=0;entryX=0.5;entryY=0;entryDx=0;entryDy=0;" edge="1" parent="1" source="wR1I_Ti6qpzqJlPBpOAb-219" target="wR1I_Ti6qpzqJlPBpOAb-220">
          <mxGeometry relative="1" as="geometry" />
        </mxCell>
        <mxCell id="wR1I_Ti6qpzqJlPBpOAb-219" value="Scan QR" style="shape=parallelogram;html=1;strokeWidth=2;perimeter=parallelogramPerimeter;whiteSpace=wrap;rounded=1;arcSize=12;size=0.23;" vertex="1" parent="1">
          <mxGeometry x="529.59" y="850" width="116.67" height="70" as="geometry" />
        </mxCell>
        <mxCell id="wR1I_Ti6qpzqJlPBpOAb-220" value="Memvalidasi code QR" style="rounded=1;whiteSpace=wrap;html=1;absoluteArcSize=1;arcSize=14;strokeWidth=2;" vertex="1" parent="1">
          <mxGeometry x="497.08000000000004" y="960" width="181.66" height="50" as="geometry" />
        </mxCell>
        <mxCell id="wR1I_Ti6qpzqJlPBpOAb-224" style="edgeStyle=orthogonalEdgeStyle;rounded=0;orthogonalLoop=1;jettySize=auto;html=1;exitX=1;exitY=0.5;exitDx=0;exitDy=0;exitPerimeter=0;entryX=1;entryY=0.5;entryDx=0;entryDy=0;" edge="1" parent="1" source="wR1I_Ti6qpzqJlPBpOAb-221" target="wR1I_Ti6qpzqJlPBpOAb-219">
          <mxGeometry relative="1" as="geometry">
            <Array as="points">
              <mxPoint x="726.25" y="1090" />
              <mxPoint x="726.25" y="885" />
            </Array>
          </mxGeometry>
        </mxCell>
        <mxCell id="wR1I_Ti6qpzqJlPBpOAb-227" value="Tidak" style="edgeLabel;html=1;align=center;verticalAlign=middle;resizable=0;points=[];" vertex="1" connectable="0" parent="wR1I_Ti6qpzqJlPBpOAb-224">
          <mxGeometry x="-0.8225" y="-4" relative="1" as="geometry">
            <mxPoint y="-14" as="offset" />
          </mxGeometry>
        </mxCell>
        <mxCell id="wR1I_Ti6qpzqJlPBpOAb-228" style="edgeStyle=orthogonalEdgeStyle;rounded=0;orthogonalLoop=1;jettySize=auto;html=1;exitX=0.5;exitY=1;exitDx=0;exitDy=0;exitPerimeter=0;entryX=0.5;entryY=0;entryDx=0;entryDy=0;entryPerimeter=0;" edge="1" parent="1" source="wR1I_Ti6qpzqJlPBpOAb-221" target="wR1I_Ti6qpzqJlPBpOAb-226">
          <mxGeometry relative="1" as="geometry">
            <mxPoint x="587.905" y="1190" as="targetPoint" />
          </mxGeometry>
        </mxCell>
        <mxCell id="wR1I_Ti6qpzqJlPBpOAb-230" value="Ya" style="edgeLabel;html=1;align=center;verticalAlign=middle;resizable=0;points=[];" vertex="1" connectable="0" parent="wR1I_Ti6qpzqJlPBpOAb-228">
          <mxGeometry x="-0.52" y="-2" relative="1" as="geometry">
            <mxPoint x="15" y="8" as="offset" />
          </mxGeometry>
        </mxCell>
        <mxCell id="wR1I_Ti6qpzqJlPBpOAb-221" value="QR valid?" style="strokeWidth=2;html=1;shape=mxgraph.flowchart.decision;whiteSpace=wrap;" vertex="1" parent="1">
          <mxGeometry x="537.92" y="1040" width="100" height="100" as="geometry" />
        </mxCell>
        <mxCell id="wR1I_Ti6qpzqJlPBpOAb-232" style="edgeStyle=orthogonalEdgeStyle;rounded=0;orthogonalLoop=1;jettySize=auto;html=1;exitX=0;exitY=0.5;exitDx=0;exitDy=0;exitPerimeter=0;entryX=0.5;entryY=0;entryDx=0;entryDy=0;" edge="1" parent="1" source="wR1I_Ti6qpzqJlPBpOAb-226" target="wR1I_Ti6qpzqJlPBpOAb-231">
          <mxGeometry relative="1" as="geometry" />
        </mxCell>
        <mxCell id="wR1I_Ti6qpzqJlPBpOAb-268" value="Tidak" style="edgeLabel;html=1;align=center;verticalAlign=middle;resizable=0;points=[];" vertex="1" connectable="0" parent="wR1I_Ti6qpzqJlPBpOAb-232">
          <mxGeometry x="-0.1897" y="-4" relative="1" as="geometry">
            <mxPoint x="14" y="-6" as="offset" />
          </mxGeometry>
        </mxCell>
        <mxCell id="wR1I_Ti6qpzqJlPBpOAb-260" style="edgeStyle=orthogonalEdgeStyle;rounded=0;orthogonalLoop=1;jettySize=auto;html=1;exitX=1;exitY=0.5;exitDx=0;exitDy=0;exitPerimeter=0;" edge="1" parent="1" source="wR1I_Ti6qpzqJlPBpOAb-226" target="wR1I_Ti6qpzqJlPBpOAb-240">
          <mxGeometry relative="1" as="geometry" />
        </mxCell>
        <mxCell id="wR1I_Ti6qpzqJlPBpOAb-267" value="Ya" style="edgeLabel;html=1;align=center;verticalAlign=middle;resizable=0;points=[];" vertex="1" connectable="0" parent="wR1I_Ti6qpzqJlPBpOAb-260">
          <mxGeometry x="-0.2832" y="-4" relative="1" as="geometry">
            <mxPoint x="-9" y="-14" as="offset" />
          </mxGeometry>
        </mxCell>
        <mxCell id="wR1I_Ti6qpzqJlPBpOAb-226" value="Sudah pernah mengisi data?" style="strokeWidth=2;html=1;shape=mxgraph.flowchart.decision;whiteSpace=wrap;" vertex="1" parent="1">
          <mxGeometry x="537.91" y="1190" width="100" height="100" as="geometry" />
        </mxCell>
        <mxCell id="wR1I_Ti6qpzqJlPBpOAb-238" style="edgeStyle=orthogonalEdgeStyle;rounded=0;orthogonalLoop=1;jettySize=auto;html=1;exitX=0.5;exitY=1;exitDx=0;exitDy=0;entryX=0.5;entryY=0;entryDx=0;entryDy=0;" edge="1" parent="1" source="wR1I_Ti6qpzqJlPBpOAb-231" target="wR1I_Ti6qpzqJlPBpOAb-237">
          <mxGeometry relative="1" as="geometry" />
        </mxCell>
        <mxCell id="wR1I_Ti6qpzqJlPBpOAb-231" value="Inputkan data" style="shape=parallelogram;html=1;strokeWidth=2;perimeter=parallelogramPerimeter;whiteSpace=wrap;rounded=1;arcSize=12;size=0.23;" vertex="1" parent="1">
          <mxGeometry x="380.41" y="1300" width="116.67" height="70" as="geometry" />
        </mxCell>
        <mxCell id="wR1I_Ti6qpzqJlPBpOAb-235" style="edgeStyle=orthogonalEdgeStyle;rounded=0;orthogonalLoop=1;jettySize=auto;html=1;exitX=0.5;exitY=1;exitDx=0;exitDy=0;entryX=0.5;entryY=0;entryDx=0;entryDy=0;entryPerimeter=0;" edge="1" parent="1" source="wR1I_Ti6qpzqJlPBpOAb-220" target="wR1I_Ti6qpzqJlPBpOAb-221">
          <mxGeometry relative="1" as="geometry" />
        </mxCell>
        <mxCell id="wR1I_Ti6qpzqJlPBpOAb-262" style="edgeStyle=orthogonalEdgeStyle;rounded=0;orthogonalLoop=1;jettySize=auto;html=1;exitX=0.5;exitY=1;exitDx=0;exitDy=0;entryX=0.5;entryY=0;entryDx=0;entryDy=0;" edge="1" parent="1" source="wR1I_Ti6qpzqJlPBpOAb-237" target="wR1I_Ti6qpzqJlPBpOAb-261">
          <mxGeometry relative="1" as="geometry" />
        </mxCell>
        <mxCell id="wR1I_Ti6qpzqJlPBpOAb-237" value="Submit" style="rounded=1;whiteSpace=wrap;html=1;absoluteArcSize=1;arcSize=14;strokeWidth=2;" vertex="1" parent="1">
          <mxGeometry x="389.58000000000004" y="1410" width="98.33" height="50" as="geometry" />
        </mxCell>
        <mxCell id="wR1I_Ti6qpzqJlPBpOAb-264" style="edgeStyle=orthogonalEdgeStyle;rounded=0;orthogonalLoop=1;jettySize=auto;html=1;exitX=0.5;exitY=1;exitDx=0;exitDy=0;entryX=0.5;entryY=0;entryDx=0;entryDy=0;" edge="1" parent="1" source="wR1I_Ti6qpzqJlPBpOAb-239" target="wR1I_Ti6qpzqJlPBpOAb-261">
          <mxGeometry relative="1" as="geometry" />
        </mxCell>
        <mxCell id="wR1I_Ti6qpzqJlPBpOAb-239" value="Submit" style="rounded=1;whiteSpace=wrap;html=1;absoluteArcSize=1;arcSize=14;strokeWidth=2;" vertex="1" parent="1">
          <mxGeometry x="669.57" y="1410" width="98.33" height="50" as="geometry" />
        </mxCell>
        <mxCell id="wR1I_Ti6qpzqJlPBpOAb-263" style="edgeStyle=orthogonalEdgeStyle;rounded=0;orthogonalLoop=1;jettySize=auto;html=1;exitX=0.5;exitY=1;exitDx=0;exitDy=0;entryX=0.5;entryY=0;entryDx=0;entryDy=0;" edge="1" parent="1" source="wR1I_Ti6qpzqJlPBpOAb-240" target="wR1I_Ti6qpzqJlPBpOAb-239">
          <mxGeometry relative="1" as="geometry" />
        </mxCell>
        <mxCell id="wR1I_Ti6qpzqJlPBpOAb-240" value="Tampilkan data" style="shape=parallelogram;html=1;strokeWidth=2;perimeter=parallelogramPerimeter;whiteSpace=wrap;rounded=1;arcSize=12;size=0.23;" vertex="1" parent="1">
          <mxGeometry x="660.4" y="1300" width="116.67" height="70" as="geometry" />
        </mxCell>
        <mxCell id="wR1I_Ti6qpzqJlPBpOAb-241" value="Pengguna" style="shape=umlActor;verticalLabelPosition=bottom;verticalAlign=top;html=1;" vertex="1" parent="1">
          <mxGeometry x="130" y="1820" width="30" height="60" as="geometry" />
        </mxCell>
        <mxCell id="wR1I_Ti6qpzqJlPBpOAb-244" value="Sistem Absensi Perpustakan" style="rounded=0;whiteSpace=wrap;html=1;verticalAlign=top;" vertex="1" parent="1">
          <mxGeometry x="229" y="1790" width="174.5" height="370" as="geometry" />
        </mxCell>
        <mxCell id="wR1I_Ti6qpzqJlPBpOAb-246" value="&lt;span id=&quot;docs-internal-guid-609b7843-7fff-4658-40bd-5635e5db4f94&quot;&gt;&lt;span style=&quot;color: rgb(0, 0, 0); background-color: transparent; font-variant-numeric: normal; font-variant-east-asian: normal; font-variant-alternates: normal; font-variant-position: normal; font-variant-emoji: normal; vertical-align: baseline; white-space-collapse: preserve;&quot;&gt;&lt;font face=&quot;Helvetica&quot; style=&quot;&quot;&gt;Memanipulasi Log Absensi&lt;/font&gt;&lt;/span&gt;&lt;/span&gt;" style="strokeWidth=2;html=1;shape=mxgraph.flowchart.start_1;whiteSpace=wrap;" vertex="1" parent="1">
          <mxGeometry x="252.08" y="1945" width="128.33" height="80" as="geometry" />
        </mxCell>
        <mxCell id="wR1I_Ti6qpzqJlPBpOAb-247" value="&lt;span id=&quot;docs-internal-guid-b0f57956-7fff-01d3-ea31-1c0ed31a7f74&quot;&gt;&lt;span style=&quot;color: rgb(0, 0, 0); background-color: transparent; font-variant-numeric: normal; font-variant-east-asian: normal; font-variant-alternates: normal; font-variant-position: normal; font-variant-emoji: normal; vertical-align: baseline; white-space-collapse: preserve;&quot;&gt;&lt;font style=&quot;&quot;&gt;Mencetak Log Absensi&lt;/font&gt;&lt;/span&gt;&lt;/span&gt;" style="strokeWidth=2;html=1;shape=mxgraph.flowchart.start_1;whiteSpace=wrap;" vertex="1" parent="1">
          <mxGeometry x="252.08" y="2050" width="128.33" height="80" as="geometry" />
        </mxCell>
        <mxCell id="wR1I_Ti6qpzqJlPBpOAb-248" value="Mengisi Absensi" style="strokeWidth=2;html=1;shape=mxgraph.flowchart.start_1;whiteSpace=wrap;" vertex="1" parent="1">
          <mxGeometry x="252.08" y="1845" width="128.33" height="80" as="geometry" />
        </mxCell>
        <mxCell id="wR1I_Ti6qpzqJlPBpOAb-249" value="Admin" style="shape=umlActor;verticalLabelPosition=bottom;verticalAlign=top;html=1;" vertex="1" parent="1">
          <mxGeometry x="471.65999999999997" y="2020" width="30" height="60" as="geometry" />
        </mxCell>
        <mxCell id="wR1I_Ti6qpzqJlPBpOAb-255" style="rounded=0;orthogonalLoop=1;jettySize=auto;html=1;exitX=0.5;exitY=0.5;exitDx=0;exitDy=0;exitPerimeter=0;" edge="1" parent="1" source="wR1I_Ti6qpzqJlPBpOAb-241" target="wR1I_Ti6qpzqJlPBpOAb-248">
          <mxGeometry relative="1" as="geometry" />
        </mxCell>
        <mxCell id="wR1I_Ti6qpzqJlPBpOAb-256" style="rounded=0;orthogonalLoop=1;jettySize=auto;html=1;exitX=0.5;exitY=0.5;exitDx=0;exitDy=0;exitPerimeter=0;entryX=1;entryY=0.5;entryDx=0;entryDy=0;entryPerimeter=0;" edge="1" parent="1" source="wR1I_Ti6qpzqJlPBpOAb-249" target="wR1I_Ti6qpzqJlPBpOAb-246">
          <mxGeometry relative="1" as="geometry" />
        </mxCell>
        <mxCell id="wR1I_Ti6qpzqJlPBpOAb-258" style="rounded=0;orthogonalLoop=1;jettySize=auto;html=1;exitX=0.5;exitY=0.5;exitDx=0;exitDy=0;exitPerimeter=0;entryX=1;entryY=0.5;entryDx=0;entryDy=0;entryPerimeter=0;" edge="1" parent="1" source="wR1I_Ti6qpzqJlPBpOAb-249" target="wR1I_Ti6qpzqJlPBpOAb-247">
          <mxGeometry relative="1" as="geometry" />
        </mxCell>
        <mxCell id="wR1I_Ti6qpzqJlPBpOAb-261" value="Notifikasi absensi berhasil" style="shape=parallelogram;html=1;strokeWidth=2;perimeter=parallelogramPerimeter;whiteSpace=wrap;rounded=1;arcSize=12;size=0.23;" vertex="1" parent="1">
          <mxGeometry x="506.27" y="1540" width="139.99" height="60" as="geometry" />
        </mxCell>
        <mxCell id="wR1I_Ti6qpzqJlPBpOAb-265" value="Selesai" style="strokeWidth=2;html=1;shape=mxgraph.flowchart.start_1;whiteSpace=wrap;" vertex="1" parent="1">
          <mxGeometry x="534.6" y="1640" width="83.33" height="50" as="geometry" />
        </mxCell>
        <mxCell id="wR1I_Ti6qpzqJlPBpOAb-266" style="edgeStyle=orthogonalEdgeStyle;rounded=0;orthogonalLoop=1;jettySize=auto;html=1;exitX=0.5;exitY=1;exitDx=0;exitDy=0;entryX=0.5;entryY=0;entryDx=0;entryDy=0;entryPerimeter=0;" edge="1" parent="1" source="wR1I_Ti6qpzqJlPBpOAb-261" target="wR1I_Ti6qpzqJlPBpOAb-265">
          <mxGeometry relative="1" as="geometry" />
        </mxCell>
        <mxCell id="wR1I_Ti6qpzqJlPBpOAb-270" value="UC Activity Diagram Mengisi Absensi" style="rounded=0;whiteSpace=wrap;html=1;absoluteArcSize=1;arcSize=14;strokeWidth=2;align=left;" vertex="1" parent="1">
          <mxGeometry x="1286.68" y="700" width="209.6" height="30" as="geometry" />
        </mxCell>
        <mxCell id="wR1I_Ti6qpzqJlPBpOAb-289" style="edgeStyle=orthogonalEdgeStyle;rounded=0;orthogonalLoop=1;jettySize=auto;html=1;exitX=0.5;exitY=1;exitDx=0;exitDy=0;exitPerimeter=0;entryX=0.5;entryY=0;entryDx=0;entryDy=0;" edge="1" parent="1" source="wR1I_Ti6qpzqJlPBpOAb-272" target="wR1I_Ti6qpzqJlPBpOAb-273">
          <mxGeometry relative="1" as="geometry" />
        </mxCell>
        <mxCell id="wR1I_Ti6qpzqJlPBpOAb-272" value="Mulai" style="strokeWidth=2;html=1;shape=mxgraph.flowchart.start_1;whiteSpace=wrap;" vertex="1" parent="1">
          <mxGeometry x="1420" y="750" width="83.33" height="50" as="geometry" />
        </mxCell>
        <mxCell id="wR1I_Ti6qpzqJlPBpOAb-273" value="Login ke sistem" style="rounded=1;whiteSpace=wrap;html=1;absoluteArcSize=1;arcSize=14;strokeWidth=2;" vertex="1" parent="1">
          <mxGeometry x="1370.83" y="830" width="181.66" height="50" as="geometry" />
        </mxCell>
        <mxCell id="wR1I_Ti6qpzqJlPBpOAb-293" style="edgeStyle=orthogonalEdgeStyle;rounded=0;orthogonalLoop=1;jettySize=auto;html=1;exitX=0.5;exitY=1;exitDx=0;exitDy=0;entryX=0.5;entryY=0;entryDx=0;entryDy=0;" edge="1" parent="1" source="wR1I_Ti6qpzqJlPBpOAb-274" target="wR1I_Ti6qpzqJlPBpOAb-278">
          <mxGeometry relative="1" as="geometry" />
        </mxCell>
        <mxCell id="wR1I_Ti6qpzqJlPBpOAb-274" value="Menampilkan daftar&lt;div&gt;log absensi&lt;/div&gt;" style="shape=parallelogram;html=1;strokeWidth=2;perimeter=parallelogramPerimeter;whiteSpace=wrap;rounded=1;arcSize=12;size=0.23;" vertex="1" parent="1">
          <mxGeometry x="1366.66" y="1140" width="190" height="70" as="geometry" />
        </mxCell>
        <mxCell id="wR1I_Ti6qpzqJlPBpOAb-276" style="edgeStyle=orthogonalEdgeStyle;rounded=0;orthogonalLoop=1;jettySize=auto;html=1;exitX=1;exitY=0.5;exitDx=0;exitDy=0;exitPerimeter=0;entryX=1;entryY=0.5;entryDx=0;entryDy=0;" edge="1" parent="1" source="wR1I_Ti6qpzqJlPBpOAb-275" target="wR1I_Ti6qpzqJlPBpOAb-273">
          <mxGeometry relative="1" as="geometry">
            <Array as="points">
              <mxPoint x="1580" y="970" />
              <mxPoint x="1580" y="855" />
            </Array>
          </mxGeometry>
        </mxCell>
        <mxCell id="wR1I_Ti6qpzqJlPBpOAb-291" style="edgeStyle=orthogonalEdgeStyle;rounded=0;orthogonalLoop=1;jettySize=auto;html=1;exitX=0.5;exitY=1;exitDx=0;exitDy=0;exitPerimeter=0;entryX=0.5;entryY=0;entryDx=0;entryDy=0;" edge="1" parent="1" source="wR1I_Ti6qpzqJlPBpOAb-275" target="wR1I_Ti6qpzqJlPBpOAb-277">
          <mxGeometry relative="1" as="geometry" />
        </mxCell>
        <mxCell id="wR1I_Ti6qpzqJlPBpOAb-275" value="Memverifikasi&lt;span style=&quot;white-space: pre;&quot;&gt;&#x9;&lt;/span&gt;&lt;div&gt;kredensial login&lt;/div&gt;" style="strokeWidth=2;html=1;shape=mxgraph.flowchart.decision;whiteSpace=wrap;" vertex="1" parent="1">
          <mxGeometry x="1390.85" y="920" width="141.67" height="100" as="geometry" />
        </mxCell>
        <mxCell id="wR1I_Ti6qpzqJlPBpOAb-292" style="edgeStyle=orthogonalEdgeStyle;rounded=0;orthogonalLoop=1;jettySize=auto;html=1;exitX=0.5;exitY=1;exitDx=0;exitDy=0;entryX=0.5;entryY=0;entryDx=0;entryDy=0;" edge="1" parent="1" source="wR1I_Ti6qpzqJlPBpOAb-277" target="wR1I_Ti6qpzqJlPBpOAb-274">
          <mxGeometry relative="1" as="geometry" />
        </mxCell>
        <mxCell id="wR1I_Ti6qpzqJlPBpOAb-277" value="Mengakses menu &quot;Log Absensi&quot;" style="rounded=1;whiteSpace=wrap;html=1;absoluteArcSize=1;arcSize=14;strokeWidth=2;" vertex="1" parent="1">
          <mxGeometry x="1370.83" y="1050" width="181.66" height="50" as="geometry" />
        </mxCell>
        <mxCell id="wR1I_Ti6qpzqJlPBpOAb-296" style="edgeStyle=orthogonalEdgeStyle;rounded=0;orthogonalLoop=1;jettySize=auto;html=1;exitX=0.5;exitY=1;exitDx=0;exitDy=0;entryX=0.5;entryY=0;entryDx=0;entryDy=0;" edge="1" parent="1" source="wR1I_Ti6qpzqJlPBpOAb-278" target="wR1I_Ti6qpzqJlPBpOAb-281">
          <mxGeometry relative="1" as="geometry" />
        </mxCell>
        <mxCell id="wR1I_Ti6qpzqJlPBpOAb-278" value="Memilih log yang ingin dilihat" style="rounded=1;whiteSpace=wrap;html=1;absoluteArcSize=1;arcSize=14;strokeWidth=2;" vertex="1" parent="1">
          <mxGeometry x="1370.8300000000002" y="1250" width="181.66" height="50" as="geometry" />
        </mxCell>
        <mxCell id="wR1I_Ti6qpzqJlPBpOAb-299" style="edgeStyle=orthogonalEdgeStyle;rounded=0;orthogonalLoop=1;jettySize=auto;html=1;exitX=0.5;exitY=1;exitDx=0;exitDy=0;entryX=0.5;entryY=0;entryDx=0;entryDy=0;" edge="1" parent="1" source="wR1I_Ti6qpzqJlPBpOAb-280" target="wR1I_Ti6qpzqJlPBpOAb-282">
          <mxGeometry relative="1" as="geometry" />
        </mxCell>
        <mxCell id="wR1I_Ti6qpzqJlPBpOAb-280" value="Menekan tombol &quot;Edit&quot;" style="rounded=1;whiteSpace=wrap;html=1;absoluteArcSize=1;arcSize=14;strokeWidth=2;" vertex="1" parent="1">
          <mxGeometry x="1370.84" y="1447.5" width="181.66" height="50" as="geometry" />
        </mxCell>
        <mxCell id="wR1I_Ti6qpzqJlPBpOAb-298" style="edgeStyle=orthogonalEdgeStyle;rounded=0;orthogonalLoop=1;jettySize=auto;html=1;exitX=0.5;exitY=1;exitDx=0;exitDy=0;entryX=0.5;entryY=0;entryDx=0;entryDy=0;" edge="1" parent="1" source="wR1I_Ti6qpzqJlPBpOAb-281" target="wR1I_Ti6qpzqJlPBpOAb-280">
          <mxGeometry relative="1" as="geometry" />
        </mxCell>
        <mxCell id="wR1I_Ti6qpzqJlPBpOAb-281" value="Menampilkan isi log&amp;nbsp;&lt;div&gt;yang&amp;nbsp;&lt;span style=&quot;background-color: transparent; color: light-dark(rgb(0, 0, 0), rgb(255, 255, 255));&quot;&gt;dipilih&lt;/span&gt;&lt;/div&gt;" style="shape=parallelogram;html=1;strokeWidth=2;perimeter=parallelogramPerimeter;whiteSpace=wrap;rounded=1;arcSize=12;size=0.23;" vertex="1" parent="1">
          <mxGeometry x="1366.6699999999998" y="1340" width="190" height="70" as="geometry" />
        </mxCell>
        <mxCell id="wR1I_Ti6qpzqJlPBpOAb-300" style="edgeStyle=orthogonalEdgeStyle;rounded=0;orthogonalLoop=1;jettySize=auto;html=1;exitX=0.5;exitY=1;exitDx=0;exitDy=0;entryX=0.5;entryY=0;entryDx=0;entryDy=0;" edge="1" parent="1" source="wR1I_Ti6qpzqJlPBpOAb-282" target="wR1I_Ti6qpzqJlPBpOAb-283">
          <mxGeometry relative="1" as="geometry" />
        </mxCell>
        <mxCell id="wR1I_Ti6qpzqJlPBpOAb-282" value="Mengaktifkan mode pengeditan" style="rounded=1;whiteSpace=wrap;html=1;absoluteArcSize=1;arcSize=14;strokeWidth=2;" vertex="1" parent="1">
          <mxGeometry x="1370.82" y="1537.5" width="181.66" height="50" as="geometry" />
        </mxCell>
        <mxCell id="wR1I_Ti6qpzqJlPBpOAb-301" style="edgeStyle=orthogonalEdgeStyle;rounded=0;orthogonalLoop=1;jettySize=auto;html=1;exitX=0.5;exitY=1;exitDx=0;exitDy=0;entryX=0.5;entryY=0;entryDx=0;entryDy=0;" edge="1" parent="1" source="wR1I_Ti6qpzqJlPBpOAb-283" target="wR1I_Ti6qpzqJlPBpOAb-284">
          <mxGeometry relative="1" as="geometry" />
        </mxCell>
        <mxCell id="wR1I_Ti6qpzqJlPBpOAb-283" value="Mengubah isi log absensi" style="rounded=1;whiteSpace=wrap;html=1;absoluteArcSize=1;arcSize=14;strokeWidth=2;" vertex="1" parent="1">
          <mxGeometry x="1370.82" y="1627.5" width="181.66" height="50" as="geometry" />
        </mxCell>
        <mxCell id="wR1I_Ti6qpzqJlPBpOAb-302" style="edgeStyle=orthogonalEdgeStyle;rounded=0;orthogonalLoop=1;jettySize=auto;html=1;exitX=0.5;exitY=1;exitDx=0;exitDy=0;" edge="1" parent="1" source="wR1I_Ti6qpzqJlPBpOAb-284" target="wR1I_Ti6qpzqJlPBpOAb-285">
          <mxGeometry relative="1" as="geometry" />
        </mxCell>
        <mxCell id="wR1I_Ti6qpzqJlPBpOAb-284" value="Menyimpan perubahan ke database" style="rounded=1;whiteSpace=wrap;html=1;absoluteArcSize=1;arcSize=14;strokeWidth=2;" vertex="1" parent="1">
          <mxGeometry x="1370.84" y="1717.5" width="181.66" height="50" as="geometry" />
        </mxCell>
        <mxCell id="wR1I_Ti6qpzqJlPBpOAb-303" style="edgeStyle=orthogonalEdgeStyle;rounded=0;orthogonalLoop=1;jettySize=auto;html=1;exitX=0.5;exitY=1;exitDx=0;exitDy=0;entryX=0.5;entryY=0;entryDx=0;entryDy=0;" edge="1" parent="1" source="wR1I_Ti6qpzqJlPBpOAb-285" target="wR1I_Ti6qpzqJlPBpOAb-287">
          <mxGeometry relative="1" as="geometry" />
        </mxCell>
        <mxCell id="wR1I_Ti6qpzqJlPBpOAb-285" value="Melihat konfirmasi perubahan" style="rounded=1;whiteSpace=wrap;html=1;absoluteArcSize=1;arcSize=14;strokeWidth=2;" vertex="1" parent="1">
          <mxGeometry x="1370.84" y="1807.5" width="181.66" height="50" as="geometry" />
        </mxCell>
        <mxCell id="wR1I_Ti6qpzqJlPBpOAb-287" value="Menampilkan pesan&lt;div&gt;&quot;log absensi diperbarui&quot;&lt;/div&gt;" style="shape=parallelogram;html=1;strokeWidth=2;perimeter=parallelogramPerimeter;whiteSpace=wrap;rounded=1;arcSize=12;size=0.23;" vertex="1" parent="1">
          <mxGeometry x="1366.67" y="1897.5" width="190.02" height="80" as="geometry" />
        </mxCell>
        <mxCell id="wR1I_Ti6qpzqJlPBpOAb-288" value="Selesai" style="strokeWidth=2;html=1;shape=mxgraph.flowchart.start_1;whiteSpace=wrap;" vertex="1" parent="1">
          <mxGeometry x="1419.98" y="2018" width="83.33" height="50" as="geometry" />
        </mxCell>
        <mxCell id="wR1I_Ti6qpzqJlPBpOAb-290" style="edgeStyle=orthogonalEdgeStyle;rounded=0;orthogonalLoop=1;jettySize=auto;html=1;exitX=0.5;exitY=1;exitDx=0;exitDy=0;entryX=0.5;entryY=0;entryDx=0;entryDy=0;entryPerimeter=0;" edge="1" parent="1" source="wR1I_Ti6qpzqJlPBpOAb-273" target="wR1I_Ti6qpzqJlPBpOAb-275">
          <mxGeometry relative="1" as="geometry" />
        </mxCell>
        <mxCell id="wR1I_Ti6qpzqJlPBpOAb-304" style="edgeStyle=orthogonalEdgeStyle;rounded=0;orthogonalLoop=1;jettySize=auto;html=1;exitX=0.5;exitY=1;exitDx=0;exitDy=0;entryX=0.5;entryY=0;entryDx=0;entryDy=0;entryPerimeter=0;" edge="1" parent="1" source="wR1I_Ti6qpzqJlPBpOAb-287" target="wR1I_Ti6qpzqJlPBpOAb-288">
          <mxGeometry relative="1" as="geometry" />
        </mxCell>
        <mxCell id="wR1I_Ti6qpzqJlPBpOAb-305" value="Start" style="strokeWidth=2;html=1;shape=mxgraph.flowchart.start_1;whiteSpace=wrap;" vertex="1" parent="1">
          <mxGeometry x="1880.02" y="731" width="83.33" height="50" as="geometry" />
        </mxCell>
        <mxCell id="wR1I_Ti6qpzqJlPBpOAb-306" value="Selesai" style="strokeWidth=2;html=1;shape=mxgraph.flowchart.start_1;whiteSpace=wrap;" vertex="1" parent="1">
          <mxGeometry x="1880" y="1999" width="83.33" height="50" as="geometry" />
        </mxCell>
        <mxCell id="wR1I_Ti6qpzqJlPBpOAb-307" value="Login ke sistem" style="rounded=1;whiteSpace=wrap;html=1;absoluteArcSize=1;arcSize=14;strokeWidth=2;" vertex="1" parent="1">
          <mxGeometry x="1830.85" y="827" width="181.66" height="50" as="geometry" />
        </mxCell>
        <mxCell id="wR1I_Ti6qpzqJlPBpOAb-308" value="QR valid?" style="strokeWidth=2;html=1;shape=mxgraph.flowchart.decision;whiteSpace=wrap;" vertex="1" parent="1">
          <mxGeometry x="1871.6799999999998" y="920" width="100" height="100" as="geometry" />
        </mxCell>
        <mxCell id="wR1I_Ti6qpzqJlPBpOAb-310" value="UC Activity Diagram Mengisi Absensi" style="rounded=0;whiteSpace=wrap;html=1;absoluteArcSize=1;arcSize=14;strokeWidth=2;align=left;" vertex="1" parent="1">
          <mxGeometry x="360.00000000000006" y="730" width="209.6" height="30" as="geometry" />
        </mxCell>
      </root>
    </mxGraphModel>
  </diagram>
</mxfile>
